<?xml version="1.0" encoding="UTF-8"?>
<svg id="Layer_1" xmlns="http://www.w3.org/2000/svg" width="1602" height="438" version="1.1" viewBox="0 0 1602 438">
  <!-- Generator: Adobe Illustrator 29.6.1, SVG Export Plug-In . SVG Version: 2.1.1 Build 9)  -->
  <path d="M224.96,219.19c0,36.88-11.23,67.73-33.37,92.95-21.82,25.96-48.14,38.76-79.27,38.76s-57.44-12.79-79.27-38.76C10.91,286.55,0,255.69,0,219.19s10.91-67.36,33.05-92.95c21.5-25.96,47.82-38.76,79.27-38.76s57.44,12.79,79.27,38.76c22.14,25.59,33.37,56.82,33.37,92.95ZM187.09,219.19c0-24.08-7.38-44.78-22.14-61.71-14.44-17.31-32.09-25.96-52.63-25.96s-38.19,8.65-52.95,25.96-21.82,37.63-21.82,61.71,7.38,44.78,21.82,62.09c14.76,16.93,32.41,25.59,52.95,25.59s38.19-8.66,52.63-25.59c14.76-17.31,22.14-38.01,22.14-62.09Z" fill="#d9d9d9"/>
  <path d="M266.36,87.11l187.09,197.56v66.23l-149.87-158.04v157.67h-37.23V87.11ZM453.45,87.11v132.08l-37.55-39.51v-92.57h37.55Z" fill="#d9d9d9"/>
  <path d="M664.93,85.98v43.65h-96.92l75.09,88.05-112.96,132.08h-52.31l112.32-132.08-112.32-131.7h187.09ZM664.93,305.74v44.03h-82.47l37.87-44.03h44.61Z" fill="#d9d9d9"/>
  <path d="M747.73,87.48l70.92,165.19-20.86,49.29-91.78-214.49h41.72ZM1071.85,87.48l-112.32,263.41-70.6-165.19,20.86-49.29,49.74,116.28,70.6-165.19h41.72Z" fill="#d9d9d9"/>
  <path d="M1131.54,306.11h41.72l-18.61,43.65h-41.72l18.61-43.65ZM1300.02,262.09h-41.72l-33.05-77.52-33.05,77.52h-42.04l75.09-175.73,74.77,175.73ZM1337.57,349.76h-41.72l-18.93-43.65h42.04l18.61,43.65Z" fill="#d9d9d9"/>
  <path d="M1490.64,256.06l-112-167.45h47.82l63.86,95.96,64.18-95.96h47.49l-111.36,167.45ZM1471.71,352.02v-44.03h37.55v44.03h-37.55Z" fill="#d9d9d9"/>
  <metadata>
    <sfw xmlns="http://ns.adobe.com/SaveForWeb/1.0/">
      <slices/>
      <sliceSourceBounds x="0" y="85.98" width="1602" height="266.04" bottomLeftOrigin="true"/>
    </sfw>
  </metadata>
</svg>